<?xml version='1.0' encoding='UTF-8'?>
<svg height="49mm" version="1.1" width="49mm" xmlns="http://www.w3.org/2000/svg"><rect height="1mm" width="1mm" x="4mm" y="4mm"/><rect height="1mm" width="1mm" x="5mm" y="4mm"/><rect height="1mm" width="1mm" x="6mm" y="4mm"/><rect height="1mm" width="1mm" x="7mm" y="4mm"/><rect height="1mm" width="1mm" x="8mm" y="4mm"/><rect height="1mm" width="1mm" x="9mm" y="4mm"/><rect height="1mm" width="1mm" x="10mm" y="4mm"/><rect height="1mm" width="1mm" x="13mm" y="4mm"/><rect height="1mm" width="1mm" x="16mm" y="4mm"/><rect height="1mm" width="1mm" x="19mm" y="4mm"/><rect height="1mm" width="1mm" x="21mm" y="4mm"/><rect height="1mm" width="1mm" x="24mm" y="4mm"/><rect height="1mm" width="1mm" x="26mm" y="4mm"/><rect height="1mm" width="1mm" x="32mm" y="4mm"/><rect height="1mm" width="1mm" x="33mm" y="4mm"/><rect height="1mm" width="1mm" x="35mm" y="4mm"/><rect height="1mm" width="1mm" x="38mm" y="4mm"/><rect height="1mm" width="1mm" x="39mm" y="4mm"/><rect height="1mm" width="1mm" x="40mm" y="4mm"/><rect height="1mm" width="1mm" x="41mm" y="4mm"/><rect height="1mm" width="1mm" x="42mm" y="4mm"/><rect height="1mm" width="1mm" x="43mm" y="4mm"/><rect height="1mm" width="1mm" x="44mm" y="4mm"/><rect height="1mm" width="1mm" x="4mm" y="5mm"/><rect height="1mm" width="1mm" x="10mm" y="5mm"/><rect height="1mm" width="1mm" x="13mm" y="5mm"/><rect height="1mm" width="1mm" x="15mm" y="5mm"/><rect height="1mm" width="1mm" x="16mm" y="5mm"/><rect height="1mm" width="1mm" x="20mm" y="5mm"/><rect height="1mm" width="1mm" x="21mm" y="5mm"/><rect height="1mm" width="1mm" x="24mm" y="5mm"/><rect height="1mm" width="1mm" x="25mm" y="5mm"/><rect height="1mm" width="1mm" x="26mm" y="5mm"/><rect height="1mm" width="1mm" x="30mm" y="5mm"/><rect height="1mm" width="1mm" x="31mm" y="5mm"/><rect height="1mm" width="1mm" x="32mm" y="5mm"/><rect height="1mm" width="1mm" x="34mm" y="5mm"/><rect height="1mm" width="1mm" x="36mm" y="5mm"/><rect height="1mm" width="1mm" x="38mm" y="5mm"/><rect height="1mm" width="1mm" x="44mm" y="5mm"/><rect height="1mm" width="1mm" x="4mm" y="6mm"/><rect height="1mm" width="1mm" x="6mm" y="6mm"/><rect height="1mm" width="1mm" x="7mm" y="6mm"/><rect height="1mm" width="1mm" x="8mm" y="6mm"/><rect height="1mm" width="1mm" x="10mm" y="6mm"/><rect height="1mm" width="1mm" x="12mm" y="6mm"/><rect height="1mm" width="1mm" x="14mm" y="6mm"/><rect height="1mm" width="1mm" x="15mm" y="6mm"/><rect height="1mm" width="1mm" x="18mm" y="6mm"/><rect height="1mm" width="1mm" x="19mm" y="6mm"/><rect height="1mm" width="1mm" x="21mm" y="6mm"/><rect height="1mm" width="1mm" x="22mm" y="6mm"/><rect height="1mm" width="1mm" x="23mm" y="6mm"/><rect height="1mm" width="1mm" x="24mm" y="6mm"/><rect height="1mm" width="1mm" x="25mm" y="6mm"/><rect height="1mm" width="1mm" x="26mm" y="6mm"/><rect height="1mm" width="1mm" x="27mm" y="6mm"/><rect height="1mm" width="1mm" x="30mm" y="6mm"/><rect height="1mm" width="1mm" x="35mm" y="6mm"/><rect height="1mm" width="1mm" x="38mm" y="6mm"/><rect height="1mm" width="1mm" x="40mm" y="6mm"/><rect height="1mm" width="1mm" x="41mm" y="6mm"/><rect height="1mm" width="1mm" x="42mm" y="6mm"/><rect height="1mm" width="1mm" x="44mm" y="6mm"/><rect height="1mm" width="1mm" x="4mm" y="7mm"/><rect height="1mm" width="1mm" x="6mm" y="7mm"/><rect height="1mm" width="1mm" x="7mm" y="7mm"/><rect height="1mm" width="1mm" x="8mm" y="7mm"/><rect height="1mm" width="1mm" x="10mm" y="7mm"/><rect height="1mm" width="1mm" x="12mm" y="7mm"/><rect height="1mm" width="1mm" x="14mm" y="7mm"/><rect height="1mm" width="1mm" x="15mm" y="7mm"/><rect height="1mm" width="1mm" x="20mm" y="7mm"/><rect height="1mm" width="1mm" x="23mm" y="7mm"/><rect height="1mm" width="1mm" x="25mm" y="7mm"/><rect height="1mm" width="1mm" x="27mm" y="7mm"/><rect height="1mm" width="1mm" x="28mm" y="7mm"/><rect height="1mm" width="1mm" x="29mm" y="7mm"/><rect height="1mm" width="1mm" x="30mm" y="7mm"/><rect height="1mm" width="1mm" x="31mm" y="7mm"/><rect height="1mm" width="1mm" x="38mm" y="7mm"/><rect height="1mm" width="1mm" x="40mm" y="7mm"/><rect height="1mm" width="1mm" x="41mm" y="7mm"/><rect height="1mm" width="1mm" x="42mm" y="7mm"/><rect height="1mm" width="1mm" x="44mm" y="7mm"/><rect height="1mm" width="1mm" x="4mm" y="8mm"/><rect height="1mm" width="1mm" x="6mm" y="8mm"/><rect height="1mm" width="1mm" x="7mm" y="8mm"/><rect height="1mm" width="1mm" x="8mm" y="8mm"/><rect height="1mm" width="1mm" x="10mm" y="8mm"/><rect height="1mm" width="1mm" x="12mm" y="8mm"/><rect height="1mm" width="1mm" x="14mm" y="8mm"/><rect height="1mm" width="1mm" x="15mm" y="8mm"/><rect height="1mm" width="1mm" x="17mm" y="8mm"/><rect height="1mm" width="1mm" x="18mm" y="8mm"/><rect height="1mm" width="1mm" x="19mm" y="8mm"/><rect height="1mm" width="1mm" x="21mm" y="8mm"/><rect height="1mm" width="1mm" x="22mm" y="8mm"/><rect height="1mm" width="1mm" x="24mm" y="8mm"/><rect height="1mm" width="1mm" x="25mm" y="8mm"/><rect height="1mm" width="1mm" x="30mm" y="8mm"/><rect height="1mm" width="1mm" x="31mm" y="8mm"/><rect height="1mm" width="1mm" x="32mm" y="8mm"/><rect height="1mm" width="1mm" x="36mm" y="8mm"/><rect height="1mm" width="1mm" x="38mm" y="8mm"/><rect height="1mm" width="1mm" x="40mm" y="8mm"/><rect height="1mm" width="1mm" x="41mm" y="8mm"/><rect height="1mm" width="1mm" x="42mm" y="8mm"/><rect height="1mm" width="1mm" x="44mm" y="8mm"/><rect height="1mm" width="1mm" x="4mm" y="9mm"/><rect height="1mm" width="1mm" x="10mm" y="9mm"/><rect height="1mm" width="1mm" x="12mm" y="9mm"/><rect height="1mm" width="1mm" x="13mm" y="9mm"/><rect height="1mm" width="1mm" x="14mm" y="9mm"/><rect height="1mm" width="1mm" x="15mm" y="9mm"/><rect height="1mm" width="1mm" x="18mm" y="9mm"/><rect height="1mm" width="1mm" x="19mm" y="9mm"/><rect height="1mm" width="1mm" x="21mm" y="9mm"/><rect height="1mm" width="1mm" x="25mm" y="9mm"/><rect height="1mm" width="1mm" x="26mm" y="9mm"/><rect height="1mm" width="1mm" x="28mm" y="9mm"/><rect height="1mm" width="1mm" x="29mm" y="9mm"/><rect height="1mm" width="1mm" x="30mm" y="9mm"/><rect height="1mm" width="1mm" x="31mm" y="9mm"/><rect height="1mm" width="1mm" x="32mm" y="9mm"/><rect height="1mm" width="1mm" x="36mm" y="9mm"/><rect height="1mm" width="1mm" x="38mm" y="9mm"/><rect height="1mm" width="1mm" x="44mm" y="9mm"/><rect height="1mm" width="1mm" x="4mm" y="10mm"/><rect height="1mm" width="1mm" x="5mm" y="10mm"/><rect height="1mm" width="1mm" x="6mm" y="10mm"/><rect height="1mm" width="1mm" x="7mm" y="10mm"/><rect height="1mm" width="1mm" x="8mm" y="10mm"/><rect height="1mm" width="1mm" x="9mm" y="10mm"/><rect height="1mm" width="1mm" x="10mm" y="10mm"/><rect height="1mm" width="1mm" x="12mm" y="10mm"/><rect height="1mm" width="1mm" x="14mm" y="10mm"/><rect height="1mm" width="1mm" x="16mm" y="10mm"/><rect height="1mm" width="1mm" x="18mm" y="10mm"/><rect height="1mm" width="1mm" x="20mm" y="10mm"/><rect height="1mm" width="1mm" x="22mm" y="10mm"/><rect height="1mm" width="1mm" x="24mm" y="10mm"/><rect height="1mm" width="1mm" x="26mm" y="10mm"/><rect height="1mm" width="1mm" x="28mm" y="10mm"/><rect height="1mm" width="1mm" x="30mm" y="10mm"/><rect height="1mm" width="1mm" x="32mm" y="10mm"/><rect height="1mm" width="1mm" x="34mm" y="10mm"/><rect height="1mm" width="1mm" x="36mm" y="10mm"/><rect height="1mm" width="1mm" x="38mm" y="10mm"/><rect height="1mm" width="1mm" x="39mm" y="10mm"/><rect height="1mm" width="1mm" x="40mm" y="10mm"/><rect height="1mm" width="1mm" x="41mm" y="10mm"/><rect height="1mm" width="1mm" x="42mm" y="10mm"/><rect height="1mm" width="1mm" x="43mm" y="10mm"/><rect height="1mm" width="1mm" x="44mm" y="10mm"/><rect height="1mm" width="1mm" x="12mm" y="11mm"/><rect height="1mm" width="1mm" x="13mm" y="11mm"/><rect height="1mm" width="1mm" x="17mm" y="11mm"/><rect height="1mm" width="1mm" x="18mm" y="11mm"/><rect height="1mm" width="1mm" x="19mm" y="11mm"/><rect height="1mm" width="1mm" x="24mm" y="11mm"/><rect height="1mm" width="1mm" x="25mm" y="11mm"/><rect height="1mm" width="1mm" x="26mm" y="11mm"/><rect height="1mm" width="1mm" x="28mm" y="11mm"/><rect height="1mm" width="1mm" x="30mm" y="11mm"/><rect height="1mm" width="1mm" x="31mm" y="11mm"/><rect height="1mm" width="1mm" x="34mm" y="11mm"/><rect height="1mm" width="1mm" x="4mm" y="12mm"/><rect height="1mm" width="1mm" x="6mm" y="12mm"/><rect height="1mm" width="1mm" x="7mm" y="12mm"/><rect height="1mm" width="1mm" x="8mm" y="12mm"/><rect height="1mm" width="1mm" x="9mm" y="12mm"/><rect height="1mm" width="1mm" x="10mm" y="12mm"/><rect height="1mm" width="1mm" x="15mm" y="12mm"/><rect height="1mm" width="1mm" x="16mm" y="12mm"/><rect height="1mm" width="1mm" x="18mm" y="12mm"/><rect height="1mm" width="1mm" x="19mm" y="12mm"/><rect height="1mm" width="1mm" x="21mm" y="12mm"/><rect height="1mm" width="1mm" x="27mm" y="12mm"/><rect height="1mm" width="1mm" x="28mm" y="12mm"/><rect height="1mm" width="1mm" x="29mm" y="12mm"/><rect height="1mm" width="1mm" x="30mm" y="12mm"/><rect height="1mm" width="1mm" x="31mm" y="12mm"/><rect height="1mm" width="1mm" x="33mm" y="12mm"/><rect height="1mm" width="1mm" x="38mm" y="12mm"/><rect height="1mm" width="1mm" x="39mm" y="12mm"/><rect height="1mm" width="1mm" x="40mm" y="12mm"/><rect height="1mm" width="1mm" x="41mm" y="12mm"/><rect height="1mm" width="1mm" x="42mm" y="12mm"/><rect height="1mm" width="1mm" x="4mm" y="13mm"/><rect height="1mm" width="1mm" x="7mm" y="13mm"/><rect height="1mm" width="1mm" x="9mm" y="13mm"/><rect height="1mm" width="1mm" x="14mm" y="13mm"/><rect height="1mm" width="1mm" x="15mm" y="13mm"/><rect height="1mm" width="1mm" x="17mm" y="13mm"/><rect height="1mm" width="1mm" x="18mm" y="13mm"/><rect height="1mm" width="1mm" x="19mm" y="13mm"/><rect height="1mm" width="1mm" x="21mm" y="13mm"/><rect height="1mm" width="1mm" x="22mm" y="13mm"/><rect height="1mm" width="1mm" x="23mm" y="13mm"/><rect height="1mm" width="1mm" x="27mm" y="13mm"/><rect height="1mm" width="1mm" x="29mm" y="13mm"/><rect height="1mm" width="1mm" x="32mm" y="13mm"/><rect height="1mm" width="1mm" x="34mm" y="13mm"/><rect height="1mm" width="1mm" x="35mm" y="13mm"/><rect height="1mm" width="1mm" x="36mm" y="13mm"/><rect height="1mm" width="1mm" x="37mm" y="13mm"/><rect height="1mm" width="1mm" x="39mm" y="13mm"/><rect height="1mm" width="1mm" x="40mm" y="13mm"/><rect height="1mm" width="1mm" x="42mm" y="13mm"/><rect height="1mm" width="1mm" x="5mm" y="14mm"/><rect height="1mm" width="1mm" x="6mm" y="14mm"/><rect height="1mm" width="1mm" x="8mm" y="14mm"/><rect height="1mm" width="1mm" x="9mm" y="14mm"/><rect height="1mm" width="1mm" x="10mm" y="14mm"/><rect height="1mm" width="1mm" x="11mm" y="14mm"/><rect height="1mm" width="1mm" x="14mm" y="14mm"/><rect height="1mm" width="1mm" x="15mm" y="14mm"/><rect height="1mm" width="1mm" x="16mm" y="14mm"/><rect height="1mm" width="1mm" x="17mm" y="14mm"/><rect height="1mm" width="1mm" x="18mm" y="14mm"/><rect height="1mm" width="1mm" x="22mm" y="14mm"/><rect height="1mm" width="1mm" x="24mm" y="14mm"/><rect height="1mm" width="1mm" x="28mm" y="14mm"/><rect height="1mm" width="1mm" x="30mm" y="14mm"/><rect height="1mm" width="1mm" x="31mm" y="14mm"/><rect height="1mm" width="1mm" x="33mm" y="14mm"/><rect height="1mm" width="1mm" x="36mm" y="14mm"/><rect height="1mm" width="1mm" x="39mm" y="14mm"/><rect height="1mm" width="1mm" x="40mm" y="14mm"/><rect height="1mm" width="1mm" x="4mm" y="15mm"/><rect height="1mm" width="1mm" x="5mm" y="15mm"/><rect height="1mm" width="1mm" x="6mm" y="15mm"/><rect height="1mm" width="1mm" x="7mm" y="15mm"/><rect height="1mm" width="1mm" x="8mm" y="15mm"/><rect height="1mm" width="1mm" x="9mm" y="15mm"/><rect height="1mm" width="1mm" x="11mm" y="15mm"/><rect height="1mm" width="1mm" x="13mm" y="15mm"/><rect height="1mm" width="1mm" x="14mm" y="15mm"/><rect height="1mm" width="1mm" x="15mm" y="15mm"/><rect height="1mm" width="1mm" x="16mm" y="15mm"/><rect height="1mm" width="1mm" x="19mm" y="15mm"/><rect height="1mm" width="1mm" x="22mm" y="15mm"/><rect height="1mm" width="1mm" x="24mm" y="15mm"/><rect height="1mm" width="1mm" x="25mm" y="15mm"/><rect height="1mm" width="1mm" x="26mm" y="15mm"/><rect height="1mm" width="1mm" x="32mm" y="15mm"/><rect height="1mm" width="1mm" x="34mm" y="15mm"/><rect height="1mm" width="1mm" x="35mm" y="15mm"/><rect height="1mm" width="1mm" x="36mm" y="15mm"/><rect height="1mm" width="1mm" x="37mm" y="15mm"/><rect height="1mm" width="1mm" x="38mm" y="15mm"/><rect height="1mm" width="1mm" x="41mm" y="15mm"/><rect height="1mm" width="1mm" x="44mm" y="15mm"/><rect height="1mm" width="1mm" x="4mm" y="16mm"/><rect height="1mm" width="1mm" x="5mm" y="16mm"/><rect height="1mm" width="1mm" x="6mm" y="16mm"/><rect height="1mm" width="1mm" x="7mm" y="16mm"/><rect height="1mm" width="1mm" x="10mm" y="16mm"/><rect height="1mm" width="1mm" x="11mm" y="16mm"/><rect height="1mm" width="1mm" x="12mm" y="16mm"/><rect height="1mm" width="1mm" x="17mm" y="16mm"/><rect height="1mm" width="1mm" x="18mm" y="16mm"/><rect height="1mm" width="1mm" x="19mm" y="16mm"/><rect height="1mm" width="1mm" x="21mm" y="16mm"/><rect height="1mm" width="1mm" x="23mm" y="16mm"/><rect height="1mm" width="1mm" x="24mm" y="16mm"/><rect height="1mm" width="1mm" x="27mm" y="16mm"/><rect height="1mm" width="1mm" x="28mm" y="16mm"/><rect height="1mm" width="1mm" x="30mm" y="16mm"/><rect height="1mm" width="1mm" x="35mm" y="16mm"/><rect height="1mm" width="1mm" x="36mm" y="16mm"/><rect height="1mm" width="1mm" x="41mm" y="16mm"/><rect height="1mm" width="1mm" x="42mm" y="16mm"/><rect height="1mm" width="1mm" x="4mm" y="17mm"/><rect height="1mm" width="1mm" x="5mm" y="17mm"/><rect height="1mm" width="1mm" x="8mm" y="17mm"/><rect height="1mm" width="1mm" x="12mm" y="17mm"/><rect height="1mm" width="1mm" x="14mm" y="17mm"/><rect height="1mm" width="1mm" x="16mm" y="17mm"/><rect height="1mm" width="1mm" x="19mm" y="17mm"/><rect height="1mm" width="1mm" x="26mm" y="17mm"/><rect height="1mm" width="1mm" x="27mm" y="17mm"/><rect height="1mm" width="1mm" x="30mm" y="17mm"/><rect height="1mm" width="1mm" x="32mm" y="17mm"/><rect height="1mm" width="1mm" x="33mm" y="17mm"/><rect height="1mm" width="1mm" x="34mm" y="17mm"/><rect height="1mm" width="1mm" x="35mm" y="17mm"/><rect height="1mm" width="1mm" x="37mm" y="17mm"/><rect height="1mm" width="1mm" x="38mm" y="17mm"/><rect height="1mm" width="1mm" x="40mm" y="17mm"/><rect height="1mm" width="1mm" x="41mm" y="17mm"/><rect height="1mm" width="1mm" x="42mm" y="17mm"/><rect height="1mm" width="1mm" x="43mm" y="17mm"/><rect height="1mm" width="1mm" x="4mm" y="18mm"/><rect height="1mm" width="1mm" x="5mm" y="18mm"/><rect height="1mm" width="1mm" x="6mm" y="18mm"/><rect height="1mm" width="1mm" x="8mm" y="18mm"/><rect height="1mm" width="1mm" x="9mm" y="18mm"/><rect height="1mm" width="1mm" x="10mm" y="18mm"/><rect height="1mm" width="1mm" x="13mm" y="18mm"/><rect height="1mm" width="1mm" x="14mm" y="18mm"/><rect height="1mm" width="1mm" x="20mm" y="18mm"/><rect height="1mm" width="1mm" x="21mm" y="18mm"/><rect height="1mm" width="1mm" x="24mm" y="18mm"/><rect height="1mm" width="1mm" x="28mm" y="18mm"/><rect height="1mm" width="1mm" x="30mm" y="18mm"/><rect height="1mm" width="1mm" x="31mm" y="18mm"/><rect height="1mm" width="1mm" x="32mm" y="18mm"/><rect height="1mm" width="1mm" x="34mm" y="18mm"/><rect height="1mm" width="1mm" x="36mm" y="18mm"/><rect height="1mm" width="1mm" x="37mm" y="18mm"/><rect height="1mm" width="1mm" x="40mm" y="18mm"/><rect height="1mm" width="1mm" x="41mm" y="18mm"/><rect height="1mm" width="1mm" x="7mm" y="19mm"/><rect height="1mm" width="1mm" x="9mm" y="19mm"/><rect height="1mm" width="1mm" x="11mm" y="19mm"/><rect height="1mm" width="1mm" x="12mm" y="19mm"/><rect height="1mm" width="1mm" x="18mm" y="19mm"/><rect height="1mm" width="1mm" x="19mm" y="19mm"/><rect height="1mm" width="1mm" x="20mm" y="19mm"/><rect height="1mm" width="1mm" x="25mm" y="19mm"/><rect height="1mm" width="1mm" x="27mm" y="19mm"/><rect height="1mm" width="1mm" x="28mm" y="19mm"/><rect height="1mm" width="1mm" x="30mm" y="19mm"/><rect height="1mm" width="1mm" x="31mm" y="19mm"/><rect height="1mm" width="1mm" x="35mm" y="19mm"/><rect height="1mm" width="1mm" x="38mm" y="19mm"/><rect height="1mm" width="1mm" x="39mm" y="19mm"/><rect height="1mm" width="1mm" x="40mm" y="19mm"/><rect height="1mm" width="1mm" x="41mm" y="19mm"/><rect height="1mm" width="1mm" x="4mm" y="20mm"/><rect height="1mm" width="1mm" x="10mm" y="20mm"/><rect height="1mm" width="1mm" x="13mm" y="20mm"/><rect height="1mm" width="1mm" x="16mm" y="20mm"/><rect height="1mm" width="1mm" x="18mm" y="20mm"/><rect height="1mm" width="1mm" x="19mm" y="20mm"/><rect height="1mm" width="1mm" x="20mm" y="20mm"/><rect height="1mm" width="1mm" x="29mm" y="20mm"/><rect height="1mm" width="1mm" x="30mm" y="20mm"/><rect height="1mm" width="1mm" x="32mm" y="20mm"/><rect height="1mm" width="1mm" x="33mm" y="20mm"/><rect height="1mm" width="1mm" x="36mm" y="20mm"/><rect height="1mm" width="1mm" x="37mm" y="20mm"/><rect height="1mm" width="1mm" x="39mm" y="20mm"/><rect height="1mm" width="1mm" x="41mm" y="20mm"/><rect height="1mm" width="1mm" x="42mm" y="20mm"/><rect height="1mm" width="1mm" x="43mm" y="20mm"/><rect height="1mm" width="1mm" x="5mm" y="21mm"/><rect height="1mm" width="1mm" x="6mm" y="21mm"/><rect height="1mm" width="1mm" x="7mm" y="21mm"/><rect height="1mm" width="1mm" x="8mm" y="21mm"/><rect height="1mm" width="1mm" x="11mm" y="21mm"/><rect height="1mm" width="1mm" x="15mm" y="21mm"/><rect height="1mm" width="1mm" x="17mm" y="21mm"/><rect height="1mm" width="1mm" x="24mm" y="21mm"/><rect height="1mm" width="1mm" x="26mm" y="21mm"/><rect height="1mm" width="1mm" x="30mm" y="21mm"/><rect height="1mm" width="1mm" x="32mm" y="21mm"/><rect height="1mm" width="1mm" x="35mm" y="21mm"/><rect height="1mm" width="1mm" x="38mm" y="21mm"/><rect height="1mm" width="1mm" x="39mm" y="21mm"/><rect height="1mm" width="1mm" x="40mm" y="21mm"/><rect height="1mm" width="1mm" x="42mm" y="21mm"/><rect height="1mm" width="1mm" x="43mm" y="21mm"/><rect height="1mm" width="1mm" x="44mm" y="21mm"/><rect height="1mm" width="1mm" x="5mm" y="22mm"/><rect height="1mm" width="1mm" x="7mm" y="22mm"/><rect height="1mm" width="1mm" x="10mm" y="22mm"/><rect height="1mm" width="1mm" x="11mm" y="22mm"/><rect height="1mm" width="1mm" x="12mm" y="22mm"/><rect height="1mm" width="1mm" x="13mm" y="22mm"/><rect height="1mm" width="1mm" x="15mm" y="22mm"/><rect height="1mm" width="1mm" x="17mm" y="22mm"/><rect height="1mm" width="1mm" x="18mm" y="22mm"/><rect height="1mm" width="1mm" x="22mm" y="22mm"/><rect height="1mm" width="1mm" x="26mm" y="22mm"/><rect height="1mm" width="1mm" x="28mm" y="22mm"/><rect height="1mm" width="1mm" x="29mm" y="22mm"/><rect height="1mm" width="1mm" x="30mm" y="22mm"/><rect height="1mm" width="1mm" x="31mm" y="22mm"/><rect height="1mm" width="1mm" x="34mm" y="22mm"/><rect height="1mm" width="1mm" x="36mm" y="22mm"/><rect height="1mm" width="1mm" x="38mm" y="22mm"/><rect height="1mm" width="1mm" x="40mm" y="22mm"/><rect height="1mm" width="1mm" x="41mm" y="22mm"/><rect height="1mm" width="1mm" x="42mm" y="22mm"/><rect height="1mm" width="1mm" x="6mm" y="23mm"/><rect height="1mm" width="1mm" x="12mm" y="23mm"/><rect height="1mm" width="1mm" x="13mm" y="23mm"/><rect height="1mm" width="1mm" x="15mm" y="23mm"/><rect height="1mm" width="1mm" x="16mm" y="23mm"/><rect height="1mm" width="1mm" x="17mm" y="23mm"/><rect height="1mm" width="1mm" x="18mm" y="23mm"/><rect height="1mm" width="1mm" x="19mm" y="23mm"/><rect height="1mm" width="1mm" x="20mm" y="23mm"/><rect height="1mm" width="1mm" x="23mm" y="23mm"/><rect height="1mm" width="1mm" x="27mm" y="23mm"/><rect height="1mm" width="1mm" x="30mm" y="23mm"/><rect height="1mm" width="1mm" x="36mm" y="23mm"/><rect height="1mm" width="1mm" x="38mm" y="23mm"/><rect height="1mm" width="1mm" x="40mm" y="23mm"/><rect height="1mm" width="1mm" x="43mm" y="23mm"/><rect height="1mm" width="1mm" x="44mm" y="23mm"/><rect height="1mm" width="1mm" x="5mm" y="24mm"/><rect height="1mm" width="1mm" x="6mm" y="24mm"/><rect height="1mm" width="1mm" x="8mm" y="24mm"/><rect height="1mm" width="1mm" x="10mm" y="24mm"/><rect height="1mm" width="1mm" x="12mm" y="24mm"/><rect height="1mm" width="1mm" x="13mm" y="24mm"/><rect height="1mm" width="1mm" x="17mm" y="24mm"/><rect height="1mm" width="1mm" x="20mm" y="24mm"/><rect height="1mm" width="1mm" x="22mm" y="24mm"/><rect height="1mm" width="1mm" x="23mm" y="24mm"/><rect height="1mm" width="1mm" x="24mm" y="24mm"/><rect height="1mm" width="1mm" x="25mm" y="24mm"/><rect height="1mm" width="1mm" x="26mm" y="24mm"/><rect height="1mm" width="1mm" x="29mm" y="24mm"/><rect height="1mm" width="1mm" x="30mm" y="24mm"/><rect height="1mm" width="1mm" x="31mm" y="24mm"/><rect height="1mm" width="1mm" x="32mm" y="24mm"/><rect height="1mm" width="1mm" x="33mm" y="24mm"/><rect height="1mm" width="1mm" x="34mm" y="24mm"/><rect height="1mm" width="1mm" x="36mm" y="24mm"/><rect height="1mm" width="1mm" x="39mm" y="24mm"/><rect height="1mm" width="1mm" x="41mm" y="24mm"/><rect height="1mm" width="1mm" x="42mm" y="24mm"/><rect height="1mm" width="1mm" x="43mm" y="24mm"/><rect height="1mm" width="1mm" x="4mm" y="25mm"/><rect height="1mm" width="1mm" x="6mm" y="25mm"/><rect height="1mm" width="1mm" x="7mm" y="25mm"/><rect height="1mm" width="1mm" x="9mm" y="25mm"/><rect height="1mm" width="1mm" x="18mm" y="25mm"/><rect height="1mm" width="1mm" x="24mm" y="25mm"/><rect height="1mm" width="1mm" x="27mm" y="25mm"/><rect height="1mm" width="1mm" x="29mm" y="25mm"/><rect height="1mm" width="1mm" x="31mm" y="25mm"/><rect height="1mm" width="1mm" x="32mm" y="25mm"/><rect height="1mm" width="1mm" x="33mm" y="25mm"/><rect height="1mm" width="1mm" x="34mm" y="25mm"/><rect height="1mm" width="1mm" x="35mm" y="25mm"/><rect height="1mm" width="1mm" x="37mm" y="25mm"/><rect height="1mm" width="1mm" x="38mm" y="25mm"/><rect height="1mm" width="1mm" x="40mm" y="25mm"/><rect height="1mm" width="1mm" x="41mm" y="25mm"/><rect height="1mm" width="1mm" x="42mm" y="25mm"/><rect height="1mm" width="1mm" x="43mm" y="25mm"/><rect height="1mm" width="1mm" x="44mm" y="25mm"/><rect height="1mm" width="1mm" x="4mm" y="26mm"/><rect height="1mm" width="1mm" x="6mm" y="26mm"/><rect height="1mm" width="1mm" x="9mm" y="26mm"/><rect height="1mm" width="1mm" x="10mm" y="26mm"/><rect height="1mm" width="1mm" x="11mm" y="26mm"/><rect height="1mm" width="1mm" x="13mm" y="26mm"/><rect height="1mm" width="1mm" x="17mm" y="26mm"/><rect height="1mm" width="1mm" x="19mm" y="26mm"/><rect height="1mm" width="1mm" x="20mm" y="26mm"/><rect height="1mm" width="1mm" x="21mm" y="26mm"/><rect height="1mm" width="1mm" x="26mm" y="26mm"/><rect height="1mm" width="1mm" x="29mm" y="26mm"/><rect height="1mm" width="1mm" x="30mm" y="26mm"/><rect height="1mm" width="1mm" x="31mm" y="26mm"/><rect height="1mm" width="1mm" x="33mm" y="26mm"/><rect height="1mm" width="1mm" x="36mm" y="26mm"/><rect height="1mm" width="1mm" x="37mm" y="26mm"/><rect height="1mm" width="1mm" x="38mm" y="26mm"/><rect height="1mm" width="1mm" x="41mm" y="26mm"/><rect height="1mm" width="1mm" x="42mm" y="26mm"/><rect height="1mm" width="1mm" x="5mm" y="27mm"/><rect height="1mm" width="1mm" x="8mm" y="27mm"/><rect height="1mm" width="1mm" x="11mm" y="27mm"/><rect height="1mm" width="1mm" x="14mm" y="27mm"/><rect height="1mm" width="1mm" x="16mm" y="27mm"/><rect height="1mm" width="1mm" x="17mm" y="27mm"/><rect height="1mm" width="1mm" x="22mm" y="27mm"/><rect height="1mm" width="1mm" x="25mm" y="27mm"/><rect height="1mm" width="1mm" x="27mm" y="27mm"/><rect height="1mm" width="1mm" x="30mm" y="27mm"/><rect height="1mm" width="1mm" x="31mm" y="27mm"/><rect height="1mm" width="1mm" x="35mm" y="27mm"/><rect height="1mm" width="1mm" x="36mm" y="27mm"/><rect height="1mm" width="1mm" x="40mm" y="27mm"/><rect height="1mm" width="1mm" x="41mm" y="27mm"/><rect height="1mm" width="1mm" x="44mm" y="27mm"/><rect height="1mm" width="1mm" x="4mm" y="28mm"/><rect height="1mm" width="1mm" x="5mm" y="28mm"/><rect height="1mm" width="1mm" x="10mm" y="28mm"/><rect height="1mm" width="1mm" x="11mm" y="28mm"/><rect height="1mm" width="1mm" x="14mm" y="28mm"/><rect height="1mm" width="1mm" x="15mm" y="28mm"/><rect height="1mm" width="1mm" x="19mm" y="28mm"/><rect height="1mm" width="1mm" x="21mm" y="28mm"/><rect height="1mm" width="1mm" x="23mm" y="28mm"/><rect height="1mm" width="1mm" x="26mm" y="28mm"/><rect height="1mm" width="1mm" x="28mm" y="28mm"/><rect height="1mm" width="1mm" x="29mm" y="28mm"/><rect height="1mm" width="1mm" x="30mm" y="28mm"/><rect height="1mm" width="1mm" x="31mm" y="28mm"/><rect height="1mm" width="1mm" x="33mm" y="28mm"/><rect height="1mm" width="1mm" x="35mm" y="28mm"/><rect height="1mm" width="1mm" x="39mm" y="28mm"/><rect height="1mm" width="1mm" x="42mm" y="28mm"/><rect height="1mm" width="1mm" x="43mm" y="28mm"/><rect height="1mm" width="1mm" x="4mm" y="29mm"/><rect height="1mm" width="1mm" x="7mm" y="29mm"/><rect height="1mm" width="1mm" x="9mm" y="29mm"/><rect height="1mm" width="1mm" x="11mm" y="29mm"/><rect height="1mm" width="1mm" x="12mm" y="29mm"/><rect height="1mm" width="1mm" x="13mm" y="29mm"/><rect height="1mm" width="1mm" x="17mm" y="29mm"/><rect height="1mm" width="1mm" x="20mm" y="29mm"/><rect height="1mm" width="1mm" x="22mm" y="29mm"/><rect height="1mm" width="1mm" x="23mm" y="29mm"/><rect height="1mm" width="1mm" x="24mm" y="29mm"/><rect height="1mm" width="1mm" x="25mm" y="29mm"/><rect height="1mm" width="1mm" x="27mm" y="29mm"/><rect height="1mm" width="1mm" x="34mm" y="29mm"/><rect height="1mm" width="1mm" x="35mm" y="29mm"/><rect height="1mm" width="1mm" x="37mm" y="29mm"/><rect height="1mm" width="1mm" x="40mm" y="29mm"/><rect height="1mm" width="1mm" x="41mm" y="29mm"/><rect height="1mm" width="1mm" x="44mm" y="29mm"/><rect height="1mm" width="1mm" x="4mm" y="30mm"/><rect height="1mm" width="1mm" x="5mm" y="30mm"/><rect height="1mm" width="1mm" x="10mm" y="30mm"/><rect height="1mm" width="1mm" x="11mm" y="30mm"/><rect height="1mm" width="1mm" x="14mm" y="30mm"/><rect height="1mm" width="1mm" x="15mm" y="30mm"/><rect height="1mm" width="1mm" x="16mm" y="30mm"/><rect height="1mm" width="1mm" x="19mm" y="30mm"/><rect height="1mm" width="1mm" x="20mm" y="30mm"/><rect height="1mm" width="1mm" x="21mm" y="30mm"/><rect height="1mm" width="1mm" x="22mm" y="30mm"/><rect height="1mm" width="1mm" x="24mm" y="30mm"/><rect height="1mm" width="1mm" x="25mm" y="30mm"/><rect height="1mm" width="1mm" x="26mm" y="30mm"/><rect height="1mm" width="1mm" x="29mm" y="30mm"/><rect height="1mm" width="1mm" x="31mm" y="30mm"/><rect height="1mm" width="1mm" x="32mm" y="30mm"/><rect height="1mm" width="1mm" x="34mm" y="30mm"/><rect height="1mm" width="1mm" x="36mm" y="30mm"/><rect height="1mm" width="1mm" x="38mm" y="30mm"/><rect height="1mm" width="1mm" x="43mm" y="30mm"/><rect height="1mm" width="1mm" x="4mm" y="31mm"/><rect height="1mm" width="1mm" x="8mm" y="31mm"/><rect height="1mm" width="1mm" x="12mm" y="31mm"/><rect height="1mm" width="1mm" x="14mm" y="31mm"/><rect height="1mm" width="1mm" x="15mm" y="31mm"/><rect height="1mm" width="1mm" x="17mm" y="31mm"/><rect height="1mm" width="1mm" x="19mm" y="31mm"/><rect height="1mm" width="1mm" x="20mm" y="31mm"/><rect height="1mm" width="1mm" x="22mm" y="31mm"/><rect height="1mm" width="1mm" x="23mm" y="31mm"/><rect height="1mm" width="1mm" x="24mm" y="31mm"/><rect height="1mm" width="1mm" x="25mm" y="31mm"/><rect height="1mm" width="1mm" x="27mm" y="31mm"/><rect height="1mm" width="1mm" x="30mm" y="31mm"/><rect height="1mm" width="1mm" x="35mm" y="31mm"/><rect height="1mm" width="1mm" x="36mm" y="31mm"/><rect height="1mm" width="1mm" x="37mm" y="31mm"/><rect height="1mm" width="1mm" x="38mm" y="31mm"/><rect height="1mm" width="1mm" x="39mm" y="31mm"/><rect height="1mm" width="1mm" x="41mm" y="31mm"/><rect height="1mm" width="1mm" x="4mm" y="32mm"/><rect height="1mm" width="1mm" x="5mm" y="32mm"/><rect height="1mm" width="1mm" x="8mm" y="32mm"/><rect height="1mm" width="1mm" x="9mm" y="32mm"/><rect height="1mm" width="1mm" x="10mm" y="32mm"/><rect height="1mm" width="1mm" x="12mm" y="32mm"/><rect height="1mm" width="1mm" x="13mm" y="32mm"/><rect height="1mm" width="1mm" x="19mm" y="32mm"/><rect height="1mm" width="1mm" x="20mm" y="32mm"/><rect height="1mm" width="1mm" x="21mm" y="32mm"/><rect height="1mm" width="1mm" x="22mm" y="32mm"/><rect height="1mm" width="1mm" x="23mm" y="32mm"/><rect height="1mm" width="1mm" x="25mm" y="32mm"/><rect height="1mm" width="1mm" x="26mm" y="32mm"/><rect height="1mm" width="1mm" x="29mm" y="32mm"/><rect height="1mm" width="1mm" x="30mm" y="32mm"/><rect height="1mm" width="1mm" x="31mm" y="32mm"/><rect height="1mm" width="1mm" x="35mm" y="32mm"/><rect height="1mm" width="1mm" x="41mm" y="32mm"/><rect height="1mm" width="1mm" x="42mm" y="32mm"/><rect height="1mm" width="1mm" x="44mm" y="32mm"/><rect height="1mm" width="1mm" x="4mm" y="33mm"/><rect height="1mm" width="1mm" x="5mm" y="33mm"/><rect height="1mm" width="1mm" x="6mm" y="33mm"/><rect height="1mm" width="1mm" x="8mm" y="33mm"/><rect height="1mm" width="1mm" x="9mm" y="33mm"/><rect height="1mm" width="1mm" x="17mm" y="33mm"/><rect height="1mm" width="1mm" x="20mm" y="33mm"/><rect height="1mm" width="1mm" x="24mm" y="33mm"/><rect height="1mm" width="1mm" x="25mm" y="33mm"/><rect height="1mm" width="1mm" x="27mm" y="33mm"/><rect height="1mm" width="1mm" x="32mm" y="33mm"/><rect height="1mm" width="1mm" x="34mm" y="33mm"/><rect height="1mm" width="1mm" x="35mm" y="33mm"/><rect height="1mm" width="1mm" x="36mm" y="33mm"/><rect height="1mm" width="1mm" x="37mm" y="33mm"/><rect height="1mm" width="1mm" x="38mm" y="33mm"/><rect height="1mm" width="1mm" x="39mm" y="33mm"/><rect height="1mm" width="1mm" x="40mm" y="33mm"/><rect height="1mm" width="1mm" x="43mm" y="33mm"/><rect height="1mm" width="1mm" x="44mm" y="33mm"/><rect height="1mm" width="1mm" x="4mm" y="34mm"/><rect height="1mm" width="1mm" x="10mm" y="34mm"/><rect height="1mm" width="1mm" x="13mm" y="34mm"/><rect height="1mm" width="1mm" x="15mm" y="34mm"/><rect height="1mm" width="1mm" x="17mm" y="34mm"/><rect height="1mm" width="1mm" x="18mm" y="34mm"/><rect height="1mm" width="1mm" x="21mm" y="34mm"/><rect height="1mm" width="1mm" x="23mm" y="34mm"/><rect height="1mm" width="1mm" x="25mm" y="34mm"/><rect height="1mm" width="1mm" x="26mm" y="34mm"/><rect height="1mm" width="1mm" x="30mm" y="34mm"/><rect height="1mm" width="1mm" x="31mm" y="34mm"/><rect height="1mm" width="1mm" x="33mm" y="34mm"/><rect height="1mm" width="1mm" x="37mm" y="34mm"/><rect height="1mm" width="1mm" x="38mm" y="34mm"/><rect height="1mm" width="1mm" x="39mm" y="34mm"/><rect height="1mm" width="1mm" x="41mm" y="34mm"/><rect height="1mm" width="1mm" x="42mm" y="34mm"/><rect height="1mm" width="1mm" x="4mm" y="35mm"/><rect height="1mm" width="1mm" x="7mm" y="35mm"/><rect height="1mm" width="1mm" x="9mm" y="35mm"/><rect height="1mm" width="1mm" x="11mm" y="35mm"/><rect height="1mm" width="1mm" x="13mm" y="35mm"/><rect height="1mm" width="1mm" x="15mm" y="35mm"/><rect height="1mm" width="1mm" x="16mm" y="35mm"/><rect height="1mm" width="1mm" x="19mm" y="35mm"/><rect height="1mm" width="1mm" x="20mm" y="35mm"/><rect height="1mm" width="1mm" x="23mm" y="35mm"/><rect height="1mm" width="1mm" x="24mm" y="35mm"/><rect height="1mm" width="1mm" x="25mm" y="35mm"/><rect height="1mm" width="1mm" x="27mm" y="35mm"/><rect height="1mm" width="1mm" x="32mm" y="35mm"/><rect height="1mm" width="1mm" x="34mm" y="35mm"/><rect height="1mm" width="1mm" x="35mm" y="35mm"/><rect height="1mm" width="1mm" x="37mm" y="35mm"/><rect height="1mm" width="1mm" x="38mm" y="35mm"/><rect height="1mm" width="1mm" x="39mm" y="35mm"/><rect height="1mm" width="1mm" x="43mm" y="35mm"/><rect height="1mm" width="1mm" x="4mm" y="36mm"/><rect height="1mm" width="1mm" x="7mm" y="36mm"/><rect height="1mm" width="1mm" x="9mm" y="36mm"/><rect height="1mm" width="1mm" x="10mm" y="36mm"/><rect height="1mm" width="1mm" x="13mm" y="36mm"/><rect height="1mm" width="1mm" x="14mm" y="36mm"/><rect height="1mm" width="1mm" x="16mm" y="36mm"/><rect height="1mm" width="1mm" x="17mm" y="36mm"/><rect height="1mm" width="1mm" x="19mm" y="36mm"/><rect height="1mm" width="1mm" x="23mm" y="36mm"/><rect height="1mm" width="1mm" x="24mm" y="36mm"/><rect height="1mm" width="1mm" x="25mm" y="36mm"/><rect height="1mm" width="1mm" x="26mm" y="36mm"/><rect height="1mm" width="1mm" x="27mm" y="36mm"/><rect height="1mm" width="1mm" x="29mm" y="36mm"/><rect height="1mm" width="1mm" x="30mm" y="36mm"/><rect height="1mm" width="1mm" x="31mm" y="36mm"/><rect height="1mm" width="1mm" x="33mm" y="36mm"/><rect height="1mm" width="1mm" x="35mm" y="36mm"/><rect height="1mm" width="1mm" x="36mm" y="36mm"/><rect height="1mm" width="1mm" x="37mm" y="36mm"/><rect height="1mm" width="1mm" x="38mm" y="36mm"/><rect height="1mm" width="1mm" x="39mm" y="36mm"/><rect height="1mm" width="1mm" x="40mm" y="36mm"/><rect height="1mm" width="1mm" x="42mm" y="36mm"/><rect height="1mm" width="1mm" x="43mm" y="36mm"/><rect height="1mm" width="1mm" x="44mm" y="36mm"/><rect height="1mm" width="1mm" x="12mm" y="37mm"/><rect height="1mm" width="1mm" x="13mm" y="37mm"/><rect height="1mm" width="1mm" x="15mm" y="37mm"/><rect height="1mm" width="1mm" x="18mm" y="37mm"/><rect height="1mm" width="1mm" x="19mm" y="37mm"/><rect height="1mm" width="1mm" x="21mm" y="37mm"/><rect height="1mm" width="1mm" x="22mm" y="37mm"/><rect height="1mm" width="1mm" x="24mm" y="37mm"/><rect height="1mm" width="1mm" x="25mm" y="37mm"/><rect height="1mm" width="1mm" x="31mm" y="37mm"/><rect height="1mm" width="1mm" x="32mm" y="37mm"/><rect height="1mm" width="1mm" x="33mm" y="37mm"/><rect height="1mm" width="1mm" x="36mm" y="37mm"/><rect height="1mm" width="1mm" x="40mm" y="37mm"/><rect height="1mm" width="1mm" x="44mm" y="37mm"/><rect height="1mm" width="1mm" x="4mm" y="38mm"/><rect height="1mm" width="1mm" x="5mm" y="38mm"/><rect height="1mm" width="1mm" x="6mm" y="38mm"/><rect height="1mm" width="1mm" x="7mm" y="38mm"/><rect height="1mm" width="1mm" x="8mm" y="38mm"/><rect height="1mm" width="1mm" x="9mm" y="38mm"/><rect height="1mm" width="1mm" x="10mm" y="38mm"/><rect height="1mm" width="1mm" x="13mm" y="38mm"/><rect height="1mm" width="1mm" x="17mm" y="38mm"/><rect height="1mm" width="1mm" x="18mm" y="38mm"/><rect height="1mm" width="1mm" x="19mm" y="38mm"/><rect height="1mm" width="1mm" x="20mm" y="38mm"/><rect height="1mm" width="1mm" x="21mm" y="38mm"/><rect height="1mm" width="1mm" x="25mm" y="38mm"/><rect height="1mm" width="1mm" x="29mm" y="38mm"/><rect height="1mm" width="1mm" x="30mm" y="38mm"/><rect height="1mm" width="1mm" x="31mm" y="38mm"/><rect height="1mm" width="1mm" x="33mm" y="38mm"/><rect height="1mm" width="1mm" x="35mm" y="38mm"/><rect height="1mm" width="1mm" x="36mm" y="38mm"/><rect height="1mm" width="1mm" x="38mm" y="38mm"/><rect height="1mm" width="1mm" x="40mm" y="38mm"/><rect height="1mm" width="1mm" x="41mm" y="38mm"/><rect height="1mm" width="1mm" x="42mm" y="38mm"/><rect height="1mm" width="1mm" x="4mm" y="39mm"/><rect height="1mm" width="1mm" x="10mm" y="39mm"/><rect height="1mm" width="1mm" x="12mm" y="39mm"/><rect height="1mm" width="1mm" x="13mm" y="39mm"/><rect height="1mm" width="1mm" x="14mm" y="39mm"/><rect height="1mm" width="1mm" x="16mm" y="39mm"/><rect height="1mm" width="1mm" x="17mm" y="39mm"/><rect height="1mm" width="1mm" x="21mm" y="39mm"/><rect height="1mm" width="1mm" x="22mm" y="39mm"/><rect height="1mm" width="1mm" x="23mm" y="39mm"/><rect height="1mm" width="1mm" x="25mm" y="39mm"/><rect height="1mm" width="1mm" x="26mm" y="39mm"/><rect height="1mm" width="1mm" x="27mm" y="39mm"/><rect height="1mm" width="1mm" x="35mm" y="39mm"/><rect height="1mm" width="1mm" x="36mm" y="39mm"/><rect height="1mm" width="1mm" x="40mm" y="39mm"/><rect height="1mm" width="1mm" x="41mm" y="39mm"/><rect height="1mm" width="1mm" x="44mm" y="39mm"/><rect height="1mm" width="1mm" x="4mm" y="40mm"/><rect height="1mm" width="1mm" x="6mm" y="40mm"/><rect height="1mm" width="1mm" x="7mm" y="40mm"/><rect height="1mm" width="1mm" x="8mm" y="40mm"/><rect height="1mm" width="1mm" x="10mm" y="40mm"/><rect height="1mm" width="1mm" x="12mm" y="40mm"/><rect height="1mm" width="1mm" x="13mm" y="40mm"/><rect height="1mm" width="1mm" x="15mm" y="40mm"/><rect height="1mm" width="1mm" x="16mm" y="40mm"/><rect height="1mm" width="1mm" x="18mm" y="40mm"/><rect height="1mm" width="1mm" x="24mm" y="40mm"/><rect height="1mm" width="1mm" x="25mm" y="40mm"/><rect height="1mm" width="1mm" x="27mm" y="40mm"/><rect height="1mm" width="1mm" x="29mm" y="40mm"/><rect height="1mm" width="1mm" x="30mm" y="40mm"/><rect height="1mm" width="1mm" x="31mm" y="40mm"/><rect height="1mm" width="1mm" x="32mm" y="40mm"/><rect height="1mm" width="1mm" x="33mm" y="40mm"/><rect height="1mm" width="1mm" x="36mm" y="40mm"/><rect height="1mm" width="1mm" x="37mm" y="40mm"/><rect height="1mm" width="1mm" x="38mm" y="40mm"/><rect height="1mm" width="1mm" x="39mm" y="40mm"/><rect height="1mm" width="1mm" x="40mm" y="40mm"/><rect height="1mm" width="1mm" x="44mm" y="40mm"/><rect height="1mm" width="1mm" x="4mm" y="41mm"/><rect height="1mm" width="1mm" x="6mm" y="41mm"/><rect height="1mm" width="1mm" x="7mm" y="41mm"/><rect height="1mm" width="1mm" x="8mm" y="41mm"/><rect height="1mm" width="1mm" x="10mm" y="41mm"/><rect height="1mm" width="1mm" x="12mm" y="41mm"/><rect height="1mm" width="1mm" x="14mm" y="41mm"/><rect height="1mm" width="1mm" x="16mm" y="41mm"/><rect height="1mm" width="1mm" x="17mm" y="41mm"/><rect height="1mm" width="1mm" x="18mm" y="41mm"/><rect height="1mm" width="1mm" x="19mm" y="41mm"/><rect height="1mm" width="1mm" x="21mm" y="41mm"/><rect height="1mm" width="1mm" x="22mm" y="41mm"/><rect height="1mm" width="1mm" x="23mm" y="41mm"/><rect height="1mm" width="1mm" x="24mm" y="41mm"/><rect height="1mm" width="1mm" x="25mm" y="41mm"/><rect height="1mm" width="1mm" x="26mm" y="41mm"/><rect height="1mm" width="1mm" x="27mm" y="41mm"/><rect height="1mm" width="1mm" x="29mm" y="41mm"/><rect height="1mm" width="1mm" x="32mm" y="41mm"/><rect height="1mm" width="1mm" x="35mm" y="41mm"/><rect height="1mm" width="1mm" x="36mm" y="41mm"/><rect height="1mm" width="1mm" x="37mm" y="41mm"/><rect height="1mm" width="1mm" x="39mm" y="41mm"/><rect height="1mm" width="1mm" x="41mm" y="41mm"/><rect height="1mm" width="1mm" x="43mm" y="41mm"/><rect height="1mm" width="1mm" x="44mm" y="41mm"/><rect height="1mm" width="1mm" x="4mm" y="42mm"/><rect height="1mm" width="1mm" x="6mm" y="42mm"/><rect height="1mm" width="1mm" x="7mm" y="42mm"/><rect height="1mm" width="1mm" x="8mm" y="42mm"/><rect height="1mm" width="1mm" x="10mm" y="42mm"/><rect height="1mm" width="1mm" x="12mm" y="42mm"/><rect height="1mm" width="1mm" x="13mm" y="42mm"/><rect height="1mm" width="1mm" x="14mm" y="42mm"/><rect height="1mm" width="1mm" x="15mm" y="42mm"/><rect height="1mm" width="1mm" x="16mm" y="42mm"/><rect height="1mm" width="1mm" x="17mm" y="42mm"/><rect height="1mm" width="1mm" x="18mm" y="42mm"/><rect height="1mm" width="1mm" x="19mm" y="42mm"/><rect height="1mm" width="1mm" x="20mm" y="42mm"/><rect height="1mm" width="1mm" x="24mm" y="42mm"/><rect height="1mm" width="1mm" x="29mm" y="42mm"/><rect height="1mm" width="1mm" x="30mm" y="42mm"/><rect height="1mm" width="1mm" x="31mm" y="42mm"/><rect height="1mm" width="1mm" x="32mm" y="42mm"/><rect height="1mm" width="1mm" x="33mm" y="42mm"/><rect height="1mm" width="1mm" x="34mm" y="42mm"/><rect height="1mm" width="1mm" x="35mm" y="42mm"/><rect height="1mm" width="1mm" x="36mm" y="42mm"/><rect height="1mm" width="1mm" x="37mm" y="42mm"/><rect height="1mm" width="1mm" x="38mm" y="42mm"/><rect height="1mm" width="1mm" x="39mm" y="42mm"/><rect height="1mm" width="1mm" x="40mm" y="42mm"/><rect height="1mm" width="1mm" x="41mm" y="42mm"/><rect height="1mm" width="1mm" x="42mm" y="42mm"/><rect height="1mm" width="1mm" x="4mm" y="43mm"/><rect height="1mm" width="1mm" x="10mm" y="43mm"/><rect height="1mm" width="1mm" x="14mm" y="43mm"/><rect height="1mm" width="1mm" x="15mm" y="43mm"/><rect height="1mm" width="1mm" x="16mm" y="43mm"/><rect height="1mm" width="1mm" x="18mm" y="43mm"/><rect height="1mm" width="1mm" x="19mm" y="43mm"/><rect height="1mm" width="1mm" x="21mm" y="43mm"/><rect height="1mm" width="1mm" x="22mm" y="43mm"/><rect height="1mm" width="1mm" x="25mm" y="43mm"/><rect height="1mm" width="1mm" x="26mm" y="43mm"/><rect height="1mm" width="1mm" x="27mm" y="43mm"/><rect height="1mm" width="1mm" x="28mm" y="43mm"/><rect height="1mm" width="1mm" x="30mm" y="43mm"/><rect height="1mm" width="1mm" x="31mm" y="43mm"/><rect height="1mm" width="1mm" x="36mm" y="43mm"/><rect height="1mm" width="1mm" x="40mm" y="43mm"/><rect height="1mm" width="1mm" x="41mm" y="43mm"/><rect height="1mm" width="1mm" x="43mm" y="43mm"/><rect height="1mm" width="1mm" x="4mm" y="44mm"/><rect height="1mm" width="1mm" x="5mm" y="44mm"/><rect height="1mm" width="1mm" x="6mm" y="44mm"/><rect height="1mm" width="1mm" x="7mm" y="44mm"/><rect height="1mm" width="1mm" x="8mm" y="44mm"/><rect height="1mm" width="1mm" x="9mm" y="44mm"/><rect height="1mm" width="1mm" x="10mm" y="44mm"/><rect height="1mm" width="1mm" x="12mm" y="44mm"/><rect height="1mm" width="1mm" x="14mm" y="44mm"/><rect height="1mm" width="1mm" x="22mm" y="44mm"/><rect height="1mm" width="1mm" x="23mm" y="44mm"/><rect height="1mm" width="1mm" x="26mm" y="44mm"/><rect height="1mm" width="1mm" x="28mm" y="44mm"/><rect height="1mm" width="1mm" x="29mm" y="44mm"/><rect height="1mm" width="1mm" x="30mm" y="44mm"/><rect height="1mm" width="1mm" x="32mm" y="44mm"/><rect height="1mm" width="1mm" x="33mm" y="44mm"/><rect height="1mm" width="1mm" x="39mm" y="44mm"/><rect height="1mm" width="1mm" x="40mm" y="44mm"/><rect height="1mm" width="1mm" x="42mm" y="44mm"/></svg>